<svg width="37" height="37" viewBox="0 0 37 37" fill="none" xmlns="http://www.w3.org/2000/svg">
<path d="M26.8358 12.7298C19.8849 12.7298 13.3058 13.5895 7.3478 17.6175C4.65235 19.4398 1.71966 22.1796 2.02149 25.701C2.26424 28.5331 7.64192 27.1831 9.10235 26.4529C11.6835 25.1623 13.5864 22.3043 16.0579 20.6566C17.9778 19.3767 21.6059 26.9312 23.2954 28.1761C27.5112 31.2825 27.908 18.0384 27.4625 16.1763C26.1548 10.7111 20.616 2.3805 14.3033 2.01455C8.41743 1.67333 7.4026 7.40143 8.53839 12.2285C9.27577 15.3624 12.7005 25.6011 17.4678 24.5417C19.689 24.0481 14.0396 27.5655 12.1101 28.7714C10.7745 29.6062 4.28542 31.5513 5.56192 34.317C7.15039 37.7587 21.9986 28.9306 23.2641 28.2075C27.9412 25.5348 34.0424 22.7707 35.1699 16.9282C35.7316 14.0175 35.0086 12.6472 32.1308 11.6646C27.3565 10.0343 19.9524 10.6108 15.9952 13.8578C15.3334 14.4008 12.6785 16.6484 13.8647 17.2415" stroke="#3D99ED" stroke-width="3" stroke-linecap="round"/>
</svg>
