<svg width="37" height="37" viewBox="0 0 37 37" fill="none" xmlns="http://www.w3.org/2000/svg">
<path d="M20.6074 2.10782C14.7575 2.10782 8.24124 0.943636 4.56792 6.26621C1.90386 10.1264 1.42378 16.345 2.61603 20.863C3.78113 25.2781 7.96929 26.7932 12.036 27.143C14.0445 27.3158 16.3197 27.394 18.1463 26.3792C18.7954 26.0186 19.8046 24.195 19.8436 24.9365C19.9964 27.8394 17.7858 32.4086 19.8436 34.9506C21.8195 37.3914 23.9136 30.0645 24.2566 29.01C26.3147 22.6835 27.2956 10.6116 19.0798 7.62405C16.7666 6.78288 11.9181 12.319 10.8479 13.7343C7.72165 17.8691 6.09549 22.9374 6.09549 28.0765C6.09549 29.234 5.36748 33.3043 7.02901 33.423C13.6072 33.8929 21.0177 31.5259 26.8026 28.6706C32.0157 26.0974 35.0164 22.9128 35.1193 17.0441C35.1942 12.7759 34.6401 8.96692 30.282 7.02999C22.8188 3.71301 19.8436 14.7274 19.8436 19.6749" stroke="#F47F2C" stroke-width="3" stroke-linecap="round"/>
</svg>
