<svg width="35" height="42" viewBox="0 0 35 42" fill="none" xmlns="http://www.w3.org/2000/svg">
<path d="M6.18194 13.5747C-1.07544 13.5747 20.6639 14.7695 27.9213 14.7695C33.4222 14.7695 34.8396 14.4093 31.539 18.6527C28.8345 22.1298 24.6779 24.1363 21.7148 27.448C18.2235 31.3501 13.3403 38.651 8.10694 40.3257C7.76436 40.4353 11.3224 25.0263 11.8242 23.4653C13.7131 17.5885 15.0548 11.5494 16.6035 5.57595C16.9563 4.21545 17.0686 0.631185 18.9932 2.55568C21.4198 4.9822 22.76 11.1388 24.1376 14.2385C27.1028 20.9101 28.9183 28.001 31.5722 34.783C31.913 35.6541 34.9329 40.7013 32.4683 39.3964C30.8711 38.5508 28.9817 37.1382 27.5562 36.011C22.2739 31.8343 17.4032 27.0561 12.0234 23.0006C9.91653 21.4124 4.72471 15.367 2 15.367" stroke="#54CE52" stroke-width="3" stroke-linecap="round"/>
</svg>
